<svg viewBox="0 0 964 964" fill="none" xmlns="http://www.w3.org/2000/svg" preserveAspectRatio="xMidYMid meet">
<circle cx="481.804" cy="481.804" r="481.804" fill="#D3A066"></circle>
<path fill-rule="evenodd" clip-rule="evenodd" d="M417.61 254.13C386.073 254.13 360.508 279.695 360.508 311.232V344.572L360.508 344.628V379.579C360.508 388.309 367.585 395.386 376.314 395.386C385.044 395.386 392.12 388.309 392.12 379.579V355.942H392.188V310.52C392.188 296.328 403.693 284.824 417.884 284.824H705.337V744.158H705.414V768.566C705.414 774.874 710.527 779.987 716.835 779.987H779.91C786.217 779.987 791.33 774.874 791.33 768.566L791.33 744.158V271.261L791.33 271.187V265.55C791.33 259.243 786.217 254.13 779.91 254.13H774.199H716.835H417.61ZM360.508 665.636L360.508 665.58V630.629C360.508 621.899 367.585 614.822 376.314 614.822C385.044 614.822 392.12 621.899 392.12 630.629V636.462H392.188V722.666C392.188 736.857 403.693 748.362 417.884 748.362H625.753C626.199 748.29 626.656 748.253 627.122 748.253H676.555C681.285 748.253 685.12 752.088 685.12 756.818V770.475C685.12 775.205 681.285 779.04 676.555 779.04H668.261V779.056H417.61C386.073 779.056 360.508 753.49 360.508 721.953V665.636ZM733.601 494.481C726.468 494.481 720.685 500.263 720.685 507.397C720.685 514.53 726.468 520.312 733.601 520.312H763.212C770.345 520.312 776.128 514.53 776.128 507.397C776.128 500.263 770.345 494.481 763.212 494.481H733.601ZM720.685 556.122C720.685 548.989 726.468 543.206 733.601 543.206H763.212C770.345 543.206 776.128 548.989 776.128 556.122C776.128 563.255 770.345 569.037 763.212 569.037H733.601C726.468 569.037 720.685 563.255 720.685 556.122ZM748.159 615.786C734.837 615.786 724.038 626.585 724.038 639.906V673.519C724.038 678.25 727.873 682.085 732.603 682.085H763.714C768.444 682.085 772.279 678.25 772.279 673.519V639.906C772.279 626.585 761.48 615.786 748.159 615.786Z" fill="#1A1919"></path>
<path fill-rule="evenodd" clip-rule="evenodd" d="M436.847 655.821C427.386 655.821 419.717 663.491 419.717 672.952V704.183C419.717 713.644 427.386 721.313 436.847 721.313H622.144C631.605 721.313 639.274 713.644 639.274 704.183V672.952C639.274 663.491 631.605 655.821 622.144 655.821H436.847ZM450.495 678.14C445.764 678.14 441.93 681.974 441.93 686.705V690.43C441.93 695.16 445.764 698.995 450.495 698.995H608.496C613.227 698.995 617.062 695.16 617.062 690.43V686.705C617.062 681.974 613.227 678.14 608.496 678.14H450.495Z" fill="#1A1919"></path>
<path fill-rule="evenodd" clip-rule="evenodd" d="M436.847 655.821C427.386 655.821 419.717 663.491 419.717 672.952V704.183C419.717 713.644 427.386 721.313 436.847 721.313H622.144C631.605 721.313 639.274 713.644 639.274 704.183V672.952C639.274 663.491 631.605 655.821 622.144 655.821H436.847ZM450.495 678.14C445.764 678.14 441.93 681.974 441.93 686.705V690.43C441.93 695.16 445.764 698.995 450.495 698.995H608.496C613.227 698.995 617.062 695.16 617.062 690.43V686.705C617.062 681.974 613.227 678.14 608.496 678.14H450.495Z" fill="#1A1919"></path>
<path fill-rule="evenodd" clip-rule="evenodd" d="M436.847 655.821C427.386 655.821 419.717 663.491 419.717 672.952V704.183C419.717 713.644 427.386 721.313 436.847 721.313H622.144C631.605 721.313 639.274 713.644 639.274 704.183V672.952C639.274 663.491 631.605 655.821 622.144 655.821H436.847ZM450.495 678.14C445.764 678.14 441.93 681.974 441.93 686.705V690.43C441.93 695.16 445.764 698.995 450.495 698.995H608.496C613.227 698.995 617.062 695.16 617.062 690.43V686.705C617.062 681.974 613.227 678.14 608.496 678.14H450.495Z" fill="#1A1919"></path>
<path fill-rule="evenodd" clip-rule="evenodd" d="M436.847 655.821C427.386 655.821 419.717 663.491 419.717 672.952V704.183C419.717 713.644 427.386 721.313 436.847 721.313H622.144C631.605 721.313 639.274 713.644 639.274 704.183V672.952C639.274 663.491 631.605 655.821 622.144 655.821H436.847ZM450.495 678.14C445.764 678.14 441.93 681.974 441.93 686.705V690.43C441.93 695.16 445.764 698.995 450.495 698.995H608.496C613.227 698.995 617.062 695.16 617.062 690.43V686.705C617.062 681.974 613.227 678.14 608.496 678.14H450.495Z" fill="#1A1919"></path>
<path fill-rule="evenodd" clip-rule="evenodd" d="M118.185 341.295C116.528 341.295 115.185 342.638 115.185 344.295L115.185 493.985C115.184 494.136 115.184 494.288 115.184 494.44L115.184 538.577H115.184L115.184 571.635C115.184 573.291 116.527 574.635 118.184 574.635H165.24C166.897 574.635 168.24 573.291 168.24 571.635L168.24 538.577H168.356L168.356 494.733C168.356 479.922 180.362 467.916 195.173 467.916C209.983 467.916 221.99 479.922 221.99 494.733L221.99 538.577H222.099L222.099 571.635C222.099 573.292 223.442 574.635 225.099 574.635L271.437 574.635C273.093 574.635 274.437 573.292 274.437 571.635L274.437 502.014L274.437 501.999V494.44C274.437 450.463 238.787 414.813 194.81 414.813C185.493 414.813 176.55 416.413 168.241 419.354L168.241 344.295C168.241 342.638 166.898 341.295 165.241 341.295L118.185 341.295ZM297.318 483.481L297.318 483.499V504.017C297.318 547.994 332.968 583.644 376.944 583.644C420.921 583.644 456.571 547.994 456.571 504.017L456.571 427.657C456.571 425.539 454.854 423.823 452.736 423.823L407.349 423.823C405.231 423.823 403.515 425.539 403.515 427.657V459.88H403.399V503.724C403.399 518.535 391.392 530.541 376.582 530.541C361.771 530.541 349.765 518.535 349.765 503.724V459.88H349.656L349.656 427.656C349.656 425.539 347.939 423.822 345.821 423.822L301.152 423.822C299.035 423.822 297.318 425.539 297.318 427.656V483.481ZM479.452 348.316C479.452 346.659 480.796 345.316 482.452 345.316L529.508 345.316C531.165 345.316 532.508 346.659 532.508 348.316V428.447C540.901 425.453 549.942 423.822 559.363 423.822C603.496 423.822 639.274 459.599 639.274 503.733C639.274 547.866 603.496 583.643 559.363 583.643C519.118 583.643 485.821 553.892 480.267 515.183C479.762 514.646 479.452 513.923 479.452 513.128L479.452 503.733V348.316ZM585.817 503.733C585.817 518.343 573.973 530.187 559.363 530.187C544.753 530.187 532.909 518.343 532.909 503.733C532.909 489.122 544.753 477.278 559.363 477.278C573.973 477.278 585.817 489.122 585.817 503.733Z" fill="white"></path>
</svg>